<svg width="48" height="48" viewBox="0 0 48 48" fill="none" xmlns="http://www.w3.org/2000/svg">
<rect width="48" height="48" fill="white"/>
<path d="M36.3289 45.18C36.3289 38.976 32.0969 33.9 26.3929 32.584V29.388C28.5089 28.354 29.9809 26.192 29.9809 23.56C29.9809 22.996 29.9809 20.928 29.9809 20.364C29.9809 16.792 27.1289 13.972 23.7249 13.972C20.2289 13.972 17.4689 16.886 17.4689 20.364C17.4689 20.928 17.4689 22.996 17.4689 23.56C17.4689 26.098 18.9409 28.26 20.9649 29.294V32.584C15.3529 33.9 11.2129 39.07 11.2129 45.18H36.3289Z" stroke="black" stroke-width="2" stroke-miterlimit="10"/>
<path d="M30.0721 18.484C30.9921 17.92 31.9121 17.45 33.0161 17.262V14.818C31.4521 14.066 30.3481 12.374 30.3481 10.494C30.3481 10.118 30.3481 8.52 30.3481 8.05C30.3481 5.418 32.4641 3.162 35.1321 3.162C37.7081 3.162 39.9161 5.324 39.9161 8.05C39.9161 8.426 39.9161 10.024 39.9161 10.494C39.9161 12.468 38.8121 14.066 37.1561 14.818V17.262C41.4801 18.202 44.6081 22.056 44.6081 26.756H29.2441" stroke="black" stroke-width="2" stroke-miterlimit="10"/>
<path d="M17.7448 18.484C16.8248 17.92 15.8128 17.45 14.8008 17.262V14.818C16.3648 14.066 17.5608 12.374 17.5608 10.494C17.5608 10.118 17.5608 8.52 17.5608 8.05C17.5608 5.418 15.4448 3.162 12.7768 3.162C10.2008 3.162 7.99278 5.324 7.99278 8.05C7.99278 8.426 7.99278 10.024 7.99278 10.494C7.99278 12.374 9.09678 13.972 10.6608 14.818V17.262C6.42878 18.202 3.30078 22.056 3.30078 26.756H17.7448" stroke="black" stroke-width="2" stroke-miterlimit="10"/>
</svg>
