<svg width="48" height="48" viewBox="0 0 48 48" fill="none" xmlns="http://www.w3.org/2000/svg">
<g clip-path="url(#clip0_1433_551)">
<rect width="48" height="48" fill="white"/>
<path fill-rule="evenodd" clip-rule="evenodd" d="M27.8337 33.5962L35.0303 22.0243L35.7004 20.9242H35.6347C36.5243 19.1477 36.9878 17.1884 36.9883 15.2016C36.9883 8.11104 31.2196 2.3424 24.1291 2.3424C17.038 2.3424 11.2689 8.11104 11.2689 15.2016C11.2689 17.1907 11.734 19.1458 12.6225 20.9242H12.5702L20.1599 33.625C14.7743 34.3867 11.2324 36.601 11.2324 39.2875C11.2324 42.6163 16.8892 45.2232 24.1103 45.2232C31.3315 45.2232 36.9883 42.6158 36.9883 39.2875C36.9883 36.588 33.2812 34.3238 27.8337 33.5962ZM14.4623 21.2611C13.3185 19.4469 12.7107 17.3463 12.7089 15.2016C12.7089 8.90496 17.8319 3.7824 24.1291 3.7824C30.4257 3.7824 35.5483 8.90496 35.5483 15.2016C35.5483 17.3405 34.942 19.4357 33.7948 21.2611L33.1166 22.3642H33.1238L23.9356 37.1362L15.1084 22.3642H15.1555L14.4623 21.2611ZM24.1103 43.7832C17.3697 43.7832 12.6724 41.4134 12.6724 39.2875C12.6724 37.3579 16.21 35.5397 20.9678 34.9766L23.9116 39.9029L26.9927 34.9483C31.8268 35.472 35.5483 37.3363 35.5483 39.2875C35.5483 41.4139 30.8505 43.7832 24.1103 43.7832Z" fill="black"/>
<path fill-rule="evenodd" clip-rule="evenodd" d="M24.3436 19.8773C26.9217 19.8773 29.0193 17.7797 29.0193 15.2016C29.0193 12.6235 26.9217 10.5259 24.3436 10.5259C21.7656 10.5259 19.668 12.6235 19.668 15.2016C19.668 17.7797 21.7656 19.8773 24.3436 19.8773ZM24.3436 11.9659C25.2015 11.9669 26.0239 12.3082 26.6305 12.9148C27.2371 13.5213 27.5783 14.3438 27.5793 15.2016C27.5793 16.9858 26.1278 18.4373 24.3436 18.4373C22.5595 18.4373 21.108 16.9858 21.108 15.2016C21.109 14.3438 21.4502 13.5213 22.0568 12.9148C22.6634 12.3082 23.4858 11.9669 24.3436 11.9659Z" fill="black"/>
</g>
<defs>
<clipPath id="clip0_1433_551">
<rect width="48" height="48" fill="white"/>
</clipPath>
</defs>
</svg>
