<svg width="48" height="48" viewBox="0 0 48 48" fill="none" xmlns="http://www.w3.org/2000/svg">
<g clip-path="url(#clip0_1433_483)">
<rect width="48" height="48" fill="white"/>
<path fill-rule="evenodd" clip-rule="evenodd" d="M7.70898 4.2912V44.0976H39.4379V4.2912H7.70898ZM37.9975 42.6576H9.1485V5.7312H37.9975V42.6576Z" fill="black"/>
<path fill-rule="evenodd" clip-rule="evenodd" d="M28.159 29.7298C28.8359 28.7821 29.1997 27.6466 29.1997 26.4821C29.1997 23.3789 26.6754 20.8541 23.5726 20.8541C20.4699 20.8541 17.9451 23.3789 17.9451 26.4821C17.9451 27.6926 18.3334 28.812 18.9867 29.7307L15.32 34.9781C15.237 35.097 15.1918 35.2381 15.1903 35.3831C15.1887 35.528 15.2309 35.6701 15.3114 35.7907C15.476 36.037 15.775 36.1565 16.065 36.0936L18.8672 35.4744L19.376 38.0933C19.4044 38.2394 19.4774 38.3731 19.5849 38.4761C19.6924 38.579 19.8292 38.6461 19.9764 38.6681C20.1236 38.6901 20.274 38.6659 20.4069 38.5989C20.5398 38.5319 20.6487 38.4254 20.7186 38.2939L23.5722 32.9218L26.4272 38.2939C26.4971 38.4254 26.6059 38.5319 26.7389 38.5989C26.8718 38.6659 27.0222 38.6901 27.1694 38.6681C27.3166 38.6461 27.4534 38.579 27.5609 38.4761C27.6684 38.3731 27.7414 38.2394 27.7698 38.0933L28.2795 35.4744L31.0779 36.0931C31.2195 36.1242 31.3672 36.112 31.5017 36.058C31.6362 36.0039 31.7513 35.9106 31.832 35.7902C31.9124 35.6696 31.9547 35.5276 31.9532 35.3827C31.9518 35.2377 31.9067 35.0966 31.8238 34.9776L28.159 29.7298ZM23.5722 22.2941C25.881 22.2941 27.7592 24.1728 27.7592 26.4821C27.7592 28.7899 25.881 30.6672 23.5722 30.6672C21.2634 30.6672 19.3846 28.7899 19.3846 26.4821C19.3851 24.1733 21.2634 22.2941 23.5722 22.2941ZM20.4018 35.8214L20.1406 34.475C20.1221 34.3808 20.085 34.2913 20.0315 34.2116C19.9779 34.1319 19.909 34.0637 19.8288 34.011C19.7485 33.9583 19.6586 33.9221 19.5642 33.9046C19.4698 33.8871 19.3728 33.8887 19.279 33.9091L17.5587 34.2893L19.9875 30.8136C20.6951 31.401 21.5363 31.8055 22.437 31.9915L20.4018 35.8214ZM27.8696 33.9096C27.7758 33.8889 27.6789 33.8873 27.5844 33.9046C27.49 33.922 27.4 33.9581 27.3197 34.0108C27.2394 34.0635 27.1705 34.1317 27.1169 34.2114C27.0634 34.2912 27.0264 34.3808 27.008 34.475L26.7454 35.8234L24.7093 31.992C25.61 31.8059 26.4512 31.4013 27.1587 30.8136L29.5861 34.2898L27.8696 33.9096ZM15.0032 14.9165H31.9203C32.1113 14.9165 32.2944 14.8406 32.4294 14.7056C32.5645 14.5706 32.6403 14.3874 32.6403 14.1965C32.6403 14.0055 32.5645 13.8224 32.4294 13.6874C32.2944 13.5523 32.1113 13.4765 31.9203 13.4765H15.0032C14.8122 13.4765 14.6291 13.5523 14.4941 13.6874C14.3591 13.8224 14.2832 14.0055 14.2832 14.1965C14.2832 14.3874 14.3591 14.5706 14.4941 14.7056C14.6291 14.8406 14.8122 14.9165 15.0032 14.9165Z" fill="black"/>
</g>
<defs>
<clipPath id="clip0_1433_483">
<rect width="48" height="48" fill="white"/>
</clipPath>
</defs>
</svg>
