<svg width="40" height="40" viewBox="0 0 40 40" fill="none" xmlns="http://www.w3.org/2000/svg">
<rect width="40" height="40" rx="8" fill="#E4E9F5"/>
<path d="M11.2829 18.94C11.002 19.2212 10.8442 19.6025 10.8442 20C10.8442 20.3975 11.002 20.7787 11.2829 21.06L16.9389 26.719C17.2203 27.0004 17.602 27.1585 17.9999 27.1585C18.3979 27.1585 18.7795 27.0004 19.0609 26.719C19.3423 26.4376 19.5004 26.0559 19.5004 25.658C19.5004 25.26 19.3423 24.8784 19.0609 24.597L15.9649 21.5L27.4999 21.5C27.8977 21.5 28.2793 21.342 28.5606 21.0607C28.8419 20.7794 28.9999 20.3978 28.9999 20C28.9999 19.6022 28.8419 19.2206 28.5606 18.9393C28.2793 18.658 27.8977 18.5 27.4999 18.5L15.9649 18.5L19.0609 15.404C19.2003 15.2647 19.3108 15.0993 19.3862 14.9172C19.4616 14.7352 19.5004 14.54 19.5004 14.343C19.5004 14.146 19.4616 13.9508 19.3862 13.7688C19.3108 13.5867 19.2003 13.4213 19.0609 13.282C18.9216 13.1427 18.7562 13.0321 18.5741 12.9567C18.3921 12.8813 18.197 12.8425 17.9999 12.8425C17.8029 12.8425 17.6078 12.8813 17.4257 12.9567C17.2437 13.0321 17.0783 13.1427 16.9389 13.282L11.2829 18.94Z" fill="#535353"/>
</svg>
